<svg width="20" height="20" viewBox="0 0 20 20" fill="none" xmlns="http://www.w3.org/2000/svg">
<path fill-rule="evenodd" clip-rule="evenodd" d="M7.99636 2.91667C5.19097 2.91667 2.91675 5.19089 2.91675 7.99628C2.91675 10.8017 5.19097 13.0759 7.99636 13.0759C9.40014 13.0759 10.6689 12.5081 11.5897 11.5867C12.5094 10.6662 13.076 9.39859 13.076 7.99628C13.076 5.19089 10.8018 2.91667 7.99636 2.91667ZM0.416748 7.99628C0.416748 3.81018 3.81026 0.416668 7.99636 0.416668C12.1825 0.416668 15.576 3.81018 15.576 7.99628C15.576 9.63662 15.0539 11.1565 14.1683 12.3968L18.3876 16.6161C18.8757 17.1043 18.8757 17.8957 18.3876 18.3839C17.8994 18.872 17.108 18.872 16.6198 18.3839L12.4011 14.1652C11.16 15.0526 9.63857 15.5759 7.99636 15.5759C3.81026 15.5759 0.416748 12.1824 0.416748 7.99628Z" fill="white"/>
</svg>
